HIERARCHY
ROOT Hips
{
	OFFSET 0.000000 0.000000 0.000000
	CHANNELS 6 Xposition Yposition Zposition Zrotation Yrotation Xrotation 
	JOINT LHipJoint
	{
		OFFSET 0.000000 0.000000 0.000000
		CHANNELS 3 Zrotation Yrotation Xrotation
		JOINT LeftUpLeg
		{
			OFFSET 1.363060 -1.794630 0.839290
			CHANNELS 3 Zrotation Yrotation Xrotation
			JOINT LeftLeg
			{
				OFFSET 2.448110 -6.726130 0.000000
				CHANNELS 3 Zrotation Yrotation Xrotation
				JOINT LeftFoot
				{
					OFFSET 2.562200 -7.039590 0.000000
					CHANNELS 3 Zrotation Yrotation Xrotation
					JOINT LeftToeBase
					{
						OFFSET 0.157640 -0.433110 2.322550
						CHANNELS 3 Zrotation Yrotation Xrotation
						End Site
						{
							OFFSET 0.000000 0.000000 0.000000
						}
					}
				}
			}
		}
	}
	JOINT RHipJoint
	{
		OFFSET 0.000000 0.000000 0.000000
		CHANNELS 3 Zrotation Yrotation Xrotation
		JOINT RightUpLeg
		{
			OFFSET -1.305520 -1.794630 0.839290
			CHANNELS 3 Zrotation Yrotation Xrotation
			JOINT RightLeg
			{
				OFFSET -2.542530 -6.985550 0.000000
				CHANNELS 3 Zrotation Yrotation Xrotation
				JOINT RightFoot
				{
					OFFSET -2.568260 -7.056230 0.000000
					CHANNELS 3 Zrotation Yrotation Xrotation
					JOINT RightToeBase
					{
						OFFSET -0.164730 -0.452590 2.363150
						CHANNELS 3 Zrotation Yrotation Xrotation
						End Site
						{
							OFFSET 0.000000 0.000000 0.000000
						}
					}
				}
			}
		}
	}
	JOINT LowerBack
	{
		OFFSET 0.000000 0.000000 0.000000
		CHANNELS 3 Zrotation Yrotation Xrotation
		JOINT Spine
		{
			OFFSET 0.028270 2.035590 -0.193380
			CHANNELS 3 Zrotation Yrotation Xrotation
			JOINT Spine1
			{
				OFFSET 0.056720 2.048850 -0.042750
				CHANNELS 3 Zrotation Yrotation Xrotation
				JOINT Neck
				{
					OFFSET 0.000000 0.000000 0.000000
					CHANNELS 3 Zrotation Yrotation Xrotation
					JOINT Neck1
					{
						OFFSET -0.054170 1.746240 0.172020
						CHANNELS 3 Zrotation Yrotation Xrotation
						JOINT Head
						{
							OFFSET 0.104070 1.761360 -0.123970
							CHANNELS 3 Zrotation Yrotation Xrotation
							End Site
							{
								OFFSET 0.000000 0.000000 0.000000
							}
						}
					}
				}
				JOINT LeftShoulder
				{
					OFFSET 0.000000 0.000000 0.000000
					CHANNELS 3 Zrotation Yrotation Xrotation
					JOINT LeftArm
					{
						OFFSET 3.362410 1.200890 -0.311210
						CHANNELS 3 Zrotation Yrotation Xrotation
						JOINT LeftForeArm
						{
							OFFSET 4.983000 -0.000000 -0.000000
							CHANNELS 3 Zrotation Yrotation Xrotation
							JOINT LeftHand
							{
								OFFSET 3.483560 -0.000000 -0.000000
								CHANNELS 3 Zrotation Yrotation Xrotation
								JOINT LeftFingerBase
								{
									OFFSET 0.000000 0.000000 0.000000
									CHANNELS 3 Zrotation Yrotation Xrotation
									JOINT LeftHandIndex1
									{
										OFFSET 0.715260 -0.000000 -0.000000
										CHANNELS 3 Zrotation Yrotation Xrotation
										End Site
										{
											OFFSET 0.000000 0.000000 0.000000
										}
									}
								}
								JOINT LThumb
								{
									OFFSET 0.000000 0.000000 0.000000
									CHANNELS 3 Zrotation Yrotation Xrotation
									End Site
									{
										OFFSET 0.000000 0.000000 0.000000
									}
								}
							}
						}
					}
				}
				JOINT RightShoulder
				{
					OFFSET 0.000000 0.000000 0.000000
					CHANNELS 3 Zrotation Yrotation Xrotation
					JOINT RightArm
					{
						OFFSET -3.136600 1.374050 -0.404650
						CHANNELS 3 Zrotation Yrotation Xrotation
						JOINT RightForeArm
						{
							OFFSET -5.241900 -0.000000 -0.000000
							CHANNELS 3 Zrotation Yrotation Xrotation
							JOINT RightHand
							{
								OFFSET -3.444170 -0.000000 -0.000000
								CHANNELS 3 Zrotation Yrotation Xrotation
								JOINT RightFingerBase
								{
									OFFSET 0.000000 0.000000 0.000000
									CHANNELS 3 Zrotation Yrotation Xrotation
									JOINT RightHandIndex1
									{
										OFFSET -0.622530 -0.000000 -0.000000
										CHANNELS 3 Zrotation Yrotation Xrotation
										End Site
										{
											OFFSET 0.000000 0.000000 0.000000
										}
									}
								}
								JOINT RThumb
								{
									OFFSET 0.000000 0.000000 0.000000
									CHANNELS 3 Zrotation Yrotation Xrotation
									End Site
									{
										OFFSET 0.000000 0.000000 0.000000
									}
								}
							}
						}
					}
				}
			}
		}
	}
}
MOTION
Frames: 5
Frame Time: 0.008333
-3.865067 3.775315 17.754892 -18.780567 -1.151553 -6.425680 18.592759 2.050403 -7.992818 -26.803474 -11.280833 -111.466199 16.263915 26.140171 80.171487 -1.602443 9.971709 15.174128 0.462300 4.361400 12.095600 -14.400360 -4.266607 -6.843535 26.748121 -12.375307 -121.711237 -34.611654 -16.675291 142.563545 0.165564 10.106656 9.387256 -0.070000 -1.707100 4.696900 -8.009392 0.564129 15.182358 37.014094 8.686217 -21.918700 -5.307752 2.792989 -2.695638 -12.143790 -7.363840 -26.247205 2.545709 -6.198431 38.594082 0.942700 -3.084300 21.116000 -14.787404 -8.503706 1.912707 -89.084619 40.842031 28.331952 27.513500 -31.560105 -7.436748 1.831642 8.337600 -27.345416 84.488010 52.664173 76.070700 -7.125000 0.000000 0.000000 155.429600 -68.270400 -165.951300 9.711619 14.872813 11.291699 95.481286 -48.015864 13.702314 -35.965573 33.429385 -10.037473 -6.439368 -11.006548 -8.160880 -76.924294 -54.774731 63.384300 7.125000 0.000000 0.000000 -140.237300 75.756600 -150.283800 
-3.877201 3.772596 17.758030 -18.673809 -1.305863 -6.517467 18.557697 1.990173 -8.037843 -26.588176 -11.174952 -110.541216 15.431786 26.061315 77.999672 -1.568611 9.978559 15.279067 0.496800 4.518800 12.541100 -14.385715 -4.239267 -6.835041 26.849578 -12.301523 -121.741851 -34.613894 -16.659198 142.608257 0.171908 10.053690 9.438928 -0.077600 -1.796900 4.944700 -7.958762 0.554774 15.104816 37.042050 8.691704 -21.921672 -5.305808 2.790506 -2.624219 -12.076946 -7.352808 -26.236866 2.553949 -6.235965 38.625390 0.937200 -3.089500 21.146100 -14.798379 -8.494678 1.905079 -89.067999 40.930872 28.458276 27.575136 -31.613537 -7.461375 1.804191 8.340738 -27.518494 84.391945 52.661739 75.949000 -7.125000 0.000000 0.000000 155.350400 -68.342500 -165.864200 9.726277 14.841501 11.339504 95.270860 -48.198258 14.175298 -36.202655 33.583671 -10.119758 -6.427229 -11.032427 -8.427421 -77.585341 -54.843431 64.220300 7.125000 0.000000 0.000000 -141.569400 75.285800 -151.696000 
-3.889440 3.770190 17.761482 -18.560350 -1.463782 -6.602620 18.520159 1.926788 -8.087548 -26.372399 -11.065426 -109.606228 14.606036 25.952894 75.846647 -1.546231 10.031228 15.333977 0.526600 4.650300 12.913700 -14.372031 -4.212497 -6.827228 26.943716 -12.219334 -121.776898 -34.616954 -16.642774 142.656017 0.178384 9.998540 9.490711 -0.084900 -1.879500 5.172800 -7.899743 0.562848 15.038579 37.039555 8.719041 -21.960886 -5.311719 2.795296 -2.546031 -12.028011 -7.352364 -26.201645 2.574362 -6.289857 38.657587 0.936800 -3.100800 21.171700 -14.806305 -8.487221 1.899226 -89.019274 41.020502 28.618049 27.621572 -31.651391 -7.479489 1.777663 8.344947 -27.676129 84.245971 52.662149 75.763100 -7.125000 0.000000 0.000000 155.233700 -68.454500 -165.732400 9.746366 14.809106 11.396693 95.192205 -48.350647 14.394403 -36.423806 33.741742 -10.196145 -6.415083 -11.056042 -8.562052 -78.075705 -54.988767 64.892300 7.125000 0.000000 0.000000 -142.863400 74.903300 -152.988700 
-3.901679 3.767993 17.764620 -18.448649 -1.623977 -6.690077 18.480071 1.859341 -8.141166 -26.145794 -10.952753 -108.650885 13.786578 25.815188 73.705368 -1.536158 10.143771 15.360149 0.551500 4.757400 13.218000 -14.358350 -4.185377 -6.818540 27.037097 -12.131327 -121.801843 -34.619509 -16.628248 142.700017 0.184750 9.944206 9.537235 -0.091900 -1.954700 5.380400 -7.832747 0.586290 14.988880 37.020292 8.761969 -22.014626 -5.324925 2.807109 -2.469813 -11.988263 -7.360011 -26.156496 2.599967 -6.355041 38.691735 0.937500 -3.116100 21.196500 -14.812499 -8.479615 1.893220 -88.947833 41.104388 28.793337 27.655000 -31.676933 -7.492534 1.753025 8.350803 -27.810791 84.113908 52.678732 75.599100 -7.125000 0.000000 0.000000 155.162200 -68.551500 -165.635500 9.769818 14.776517 11.461077 95.216369 -48.480290 14.430333 -36.627426 33.903945 -10.269911 -6.418211 -11.053601 -8.629971 -78.460225 -55.028595 65.389300 7.125000 0.000000 0.000000 -143.594500 74.619000 -153.759500 
-3.912558 3.766319 17.766817 -18.292063 -1.772456 -6.767525 18.437802 1.789796 -8.196839 -25.964479 -10.850233 -107.677935 12.971096 25.649565 71.572229 -1.538651 10.313258 15.354663 0.567200 4.823600 13.406200 -14.346753 -4.160024 -6.812944 27.102957 -12.079860 -121.853320 -34.621955 -16.612193 142.740743 0.189824 9.918421 9.612297 -0.098700 -2.026000 5.577600 -7.788492 0.618775 14.954917 36.961753 8.812221 -22.099738 -5.334778 2.820270 -2.391394 -11.941854 -7.369296 -26.120816 2.619671 -6.420880 38.738826 0.933700 -3.131000 21.225700 -14.819427 -8.472643 1.890066 -88.874862 41.182609 28.944221 27.686580 -31.701421 -7.504852 1.733455 8.355736 -27.909233 83.994862 52.698984 75.453000 -7.125000 0.000000 0.000000 155.109600 -68.637300 -165.556200 9.799522 14.743034 11.529397 95.300373 -48.593401 14.349648 -36.812711 34.061234 -10.339643 -6.432662 -11.030756 -8.637094 -78.731728 -54.990743 65.715500 7.125000 0.000000 0.000000 -143.889600 74.431800 -154.121000 
